<svg xmlns="http://www.w3.org/2000/svg" width="327" height="259" fill="none"><path fill="#373F5C" d="M191.549 246.88c-4.63.97-9.19 1.98-13.65 3.08-58.11 14.32-139.38-1.11-160.58-65.7-12.36-37.66-22.7-80.62-4.74-115.07 11.23-21.55 31.91-35.95 53.2-46.65C85.2 12.78 106.1 5.32 127.83 4.25c56.79-2.8 107.18 37.07 151.71 74.79 16.78 14.22 34.36 29.58 41.42 50.71 11.19 33.5-9.06 70.6-37.74 88.88-26.87 17.12-60.7 21.75-91.67 28.24v.01Z"/><path fill="#fff" d="M79.78 214.16c.37 1.73.78 3.42 1.14 5.12.12.58 1.12.46 1.04-.15-.22-1.79-.66-3.54-1.31-5.22a.462.462 0 0 0-.57-.3c-.23.07-.36.31-.3.54v.01ZM104.131 214.74c-.2 1.36-.21 2.75-.29 4.13-.04.68 1.04.68 1.07 0 .05-1.34.15-2.67.07-4.01-.03-.46-.78-.61-.85-.12Z"/><path fill="#00C26D" d="M176.24 93.75c0-31.36.25-30.15-.65-32.17a7.44 7.44 0 0 0-6.73-4.32c-.49 0-103.35.03-110.33.05-3.24-9.03-15.94-11.53-22.77-5.63-7.93 6.85-5.21 23.32 7.04 24.89 0 3.08.02 13.35.02 15.39-.13 1.7-.05 3.42.24 5.1a7.35 7.35 0 0 0 7.6 5.34c3.35-.07 6.68 0 10-.27.58-.05.58-.96 0-.92-3.33.18-6.68.11-10 .12-1.97.13-3.89-.65-5.22-2.11-1.38-1.58-1.48-3.42-1.48-5.41 0-5.71.03-11.44.03-17.14 3.98.08 7.85-1.29 10.9-3.84.21-.19.25-.5.07-.73a.521.521 0 0 0-.73-.07c-9 7.24-21.09 3.31-21.95-8.65-1.18-16.51 20.41-17.9 25.13-6.07 1.42 4.02.98 8.46-1.21 12.12-.15.24-.07.56.17.7.24.15.56.07.7-.17 2.05-3.41 2.7-7.48 1.8-11.36 5.83 0 109.46.02 109.87.02a6.019 6.019 0 0 1 5.73 3.96c.32 1.19.44 2.42.34 3.64 0 0 .05 27.32 0 30.54.03 3.33-2.64 6.06-5.97 6.09-.36 0-30.52-1.22-32-1.29-.73-.04-.73 1.11 0 1.14 30.82 1.21 31.96 2.05 34.53 1.09a7.464 7.464 0 0 0 4.8-6.95c.1-1.03.07-2.07.07-3.11v.02Z"/><path fill="#00C26D" d="M129.191 101.71c-16.07-.04-54.58-.38-57.77-.36-.25 0-.45.2-.45.45s.2.45.45.45c6.55.38 51.48 1.46 57.91.56.66-.05.49-1.1-.14-1.1ZM118.41 79.98c-4.47-.08-50.24.17-55.21.24 0-1.29 0-2.6-.07-3.88a.4.4 0 0 0-.8 0c-.12 1.45-.07 2.91-.07 4.37 0 .27.22.48.49.48 17.97.02 35.96-.52 53.92-.24 4.78.07 9.59.39 14.37.12.28.18.65.1.83-.18a.53.53 0 0 0 .09-.3c.03-1.17.04-2.31 0-3.47-.02-.56.17-1.87-.41-2.23-.39-.24-1.21-.09-1.63-.1-3.4-.01-60.17.22-66.84.29a.4.4 0 0 0 0 .8c15.29.17 21.44-.05 65.02 0 .89.09 1.78.11 2.67.07-.02.24.02.56.02.78 0 1.14-.02 2.28-.02 3.42-4.12.1-8.23-.1-12.36-.17Zm12.82-4.08s-.05.02-.1 0h.1ZM90.6 63.98c-.07-.12-16.73.12-25.45.12l-.12 5.24c8.16-.12 25.08-.07 25.62-.12-.03-.95.02-5.12-.05-5.24ZM136.64 91.73c6.19.05 12.43.49 18.62.15.28.18.65.1.83-.18.06-.09.09-.2.09-.3.15-1.67.12-3.36-.07-5.03 0-.44-.36-.78-.8-.78h-.05c-1.63-.14-89.92.26-93.5.29a.4.4 0 0 0 0 .8c5.22.04-10.84.05 93.24.05.09.52.02 3.84.02 4.22-5.37.17-10.76-.11-16.12-.17-6.37-.06-71.07.22-76.97.29 0-1.29 0-2.6-.07-3.89a.4.4 0 0 0-.8 0c-.07 1.46-.07 2.91-.07 4.37 0 .25.21.45.46.46 11.78.01 61.89-.4 75.2-.29l-.01.01Zm18.82-5s-.05.03-.07.02c.02-.01.05-.02.07-.02Z"/><path fill="#fff" d="M53.63 68.23c-2.64-4.7-9.07-6.19-13.74-3.67-1.61.87-4.2 3.06-2.52 4.98a7.94 7.94 0 0 0 1.87 1.38c2.77 1.74 6.11 2.37 9.32 1.75 2.16-.49 6.05-1.75 5.34-3.84-.06-.21-.15-.42-.27-.61v.01ZM48.55 59.54c1.56-1.96 1.96-5.7-.75-6.8-1.92-.89-4.2-.41-5.58 1.19a4.798 4.798 0 0 0-.19 5.22c1.1 1.88 3.5 2.51 5.38 1.41.45-.26.84-.61 1.15-1.02h-.01Z"/><path fill="#00C26D" d="M108.57 180.99c-.82-1.08-1.5-2.25-2.04-3.5-.28-1.5-.4-3.02-.36-4.54.18-1.32.28-2.65.29-3.98 0-.25-.22-.45-.47-.45-.2 0-.37.14-.43.33-.54 1.58-.8 3.25-.75 4.92a37.206 37.206 0 0 1-10.71 11.39c-3.46-2.43-6.42-5.5-8.74-9.03-.27-2.94-.26-5.88-.39-8.86-.02-.51-.84-.68-.95-.12-.5 3.14-.52 6.35-.05 9.49-.83 4.69-4.14 8.56-8.65 10.1.12.39 3.41 24.78 3.81 25.18.4.4 28.49 1.6 28.65 0 .16-1.6 9.22-26.58 9.22-26.58a12.19 12.19 0 0 1-8.45-4.35h.02Zm-8.54 20.25c-1.96-.65-3.76-1.7-5.29-3.08-.34-.29.12-.9.49-.63 1.6 1.16 3.32 2.15 5.12 2.96.41.19.12.88-.31.75h-.01Z"/><path fill="#fff" d="M64.21 104.19a5.22 5.22 0 0 0 4.78-2.94c.79-2.02.68-4.28-.29-6.22-.24-.49-.95-.12-.85.36.53 1.57.61 3.25.24 4.86a4.007 4.007 0 0 1-3.96 2.67.395.395 0 0 0-.77.12c-.29 19.8 2.71 52.16 18.33 64.42.41.32.98-.22.58-.58-15.73-14.45-17.12-41.28-18.06-62.69ZM56.08 103.68a.368.368 0 0 0-.71-.19 92.27 92.27 0 0 0 17.21 80.49c.27.34.87-.12.61-.46-16.92-21.73-24.54-51.53-17.12-79.83l.01-.01ZM137.73 104.19c-.05-.34-.56-.34-.7-.1-.87 0-2.8.47-4.2-.51a2.126 2.126 0 0 1-.78-2.31c.14-.66.73-2.31 1.5-2.55a.396.396 0 0 0-.22-.76c-.97.24-1.48 1.29-1.89 2.11-1.51 2.98.26 5.98 5.58 5.22.68 7.87-.54 15.97-2.33 23.63-2.96 12.63-8.74 27.29-19.64 34.53-.43-3.7-.62-7.42-.56-11.14.11-6.51-1.15-12.97-3.69-18.96-2.5-5.22-8.13-2.89-8.13-2.89-4.15-3.11-13.74-4.13-18.01-1.63-4.27 2.5-.56 6.68-.56 6.68a2.97 2.97 0 0 0 .36 4.13c1.25.96 2.91 1.21 4.4.68 1.48-.46 7.74-2.62 10.76-5.05.11-.09.26-.12.39-.07.17.05.24.24.29.39a6.596 6.596 0 0 0 5.66 4.32c-.46 1.43-1.48 3.28-2.02 5-.49 1.58 1.02 2.45 2.64 2.5a1.453 1.453 0 0 1 1.34 1.8c-1.09 3.94-3.03 3.93-3.93 3.13-1.77 13.19-2.17 15.11-1.67 15.75.38.49 1.24.26 1.72.19 2.37-.36 4.7-.97 6.94-1.8.06 0 .12 0 .17-.02 20.6-7.21 28.98-46.52 26.59-62.27h-.01ZM95.8 132.04c-1.65-.76-3.37-1.32-5.15-1.68-2.02-.21-4.92.31-4.74 2.96.03.39-.65.48-.7.1-.75-5.59 8.47-4.49 11.02-2.11.34.27 0 .88-.44.73h.01Z"/><path fill="#fff" d="M146.08 105.45a.398.398 0 0 0-.41-.37.39.39 0 0 0-.37.37c-.04 4.84 1.2 12.13.95 21.83-.63 24.67-8.96 40.68-22.85 54.36-.42.41.2 1 .63.63 10.64-9 17.6-21.68 20.81-35.18 4.5-18.97 1.26-35.89 1.23-41.64h.01ZM93.72 161.68c-.07-.56-.84-.34-.9.12a25.6 25.6 0 0 0 .07 4.2c.06.3.08.6.07.9-.1.22-1.41.19-1.72.22-1.14.09-2.26.18-3.4.24a.412.412 0 0 0 0 .82c1.52.09 3.04.04 4.54-.17.78-.09 1.52-.02 1.68-.9.09-.88.06-1.77-.07-2.64-.08-.95-.15-1.9-.27-2.8v.01ZM99.86 159.06c-3.32 1.46-7.84 1.63-10.03-1.72-2.5-3.84-1.42-8.67-1.46-12.94 0-.2-.16-.36-.36-.36-.2 0-.36.16-.36.36-.19 4.76-1.18 10.44 2.09 14.45 2.34 2.86 7.64 3.04 10.64 1.16.26-.15.34-.48.19-.74a.544.544 0 0 0-.7-.21h-.01Z"/><path fill="#00C26D" d="M220.561 149.93c.59.21 1.25-.02 1.58-.56.64-1.09 1.36-2.21 1.34-2.28-.02-.1-3.28-3.96-3.64-3.74a51.16 51.16 0 0 0-1.46 5.73c.05.05 1.26.5 2.19.85h-.01Z"/><path fill="#fff" d="M186.779 197.08c-5.72 1.31-14.89.53-18.25-4.47-2.44-3.61-2.13-10.15-1.04-14.25.73-2.2 1.63-4.35 2.69-6.41.19-.44-.31-.92-.68-.53-4.13 4.34-5.24 15.12-2.76 20.54 3.1 6.79 13.31 7.59 20.27 5.95.52-.12.31-.94-.23-.82v-.01Z"/><path fill="#fff" d="M189.291 193.12a23.336 23.336 0 0 1-10.59.97.421.421 0 0 0-.5.31c-.05.21.07.42.28.49 1.87.51 3.83.63 5.75.34 1.88-.02 3.72-.48 5.39-1.34.2-.13.25-.4.13-.6a.424.424 0 0 0-.46-.18v.01ZM190.909 189.21c-5.22 1.78-7.04 2.12-12.29 1.58-.46-.05-.53.65-.1.78 4.28 1.07 8.82.53 12.72-1.53.43-.25.15-.99-.34-.83h.01ZM178.329 187.15a18.59 18.59 0 0 0 11.17.1.415.415 0 0 0-.22-.8c-6.91 1.27-7.47.19-10.83-.12-.49-.05-.56.7-.12.82ZM176.71 182.9c.23.03.43-.13.46-.36.58-.65 1.34-1.11 2.19-1.34.31-.09.49-.41.4-.72a.581.581 0 0 0-.72-.4c-1.02.29-1.92.91-2.57 1.75-1.58-.33-3.08-.94-4.44-1.8a.382.382 0 0 0-.52.16.38.38 0 0 0 .06.44 9.323 9.323 0 0 0 5.15 2.27h-.01Z"/><path fill="#00C26D" d="M292.211 167.14c0-2.16.13-4.28-1.09-6.17a7.069 7.069 0 0 0-5.05-3.18c-1.42-.18-.98.02-8.3.24-.34.02-.61.3-.59.65.01.32.27.58.59.59 5.31.22 6.6-.45 8.6-.03 2.37.53 4.15 2.49 4.44 4.9.13 2.14.14 4.29.02 6.43 0 2.48.23 17.36.27 22.36a7.798 7.798 0 0 1-6.65 8.01c-1.18.2-95.3 14.26-95.88 14.33a5.9 5.9 0 0 1-5.56-2.48c-1.35-1.97-1.05-4.49-1.12-6.77-.05-1.63-.13-3.23-.19-4.83-.03-.63-.99-.63-.97 0 .26 7.78-.29 9.52 1 11.8a7.078 7.078 0 0 0 7.28 3.45c2.06-.29 89.14-13.03 95.74-14.16 3.13-.5 5.78-2.57 7.02-5.49 1.23-2.97.46-4.23.46-29.67l-.02.02Z"/><path fill="#00C26D" d="M194.139 182.51c-.51.03-.51.82 0 .8 15.92-.59 37.11-2.44 64.95-4.68.85-.1 1.71-.15 2.57-.15-.02.12 0-.73 0 4.15-1.55.08-64.49 4.77-67.33 5-.02-1.26 0-2.55-.07-3.81a.4.4 0 0 0-.8 0c-.12 1.43-.06 2.89-.07 4.32 0 .26.22.48.49.49 20.73-1.36 66.14-4.98 68.11-5.08.27.17.63.1.81-.17.06-.09.09-.2.09-.31 0-4.66.14-5.18-.29-5.58-.36-.34-1.21-.12-1.65-.07-2.77.25-42.05 3.67-66.79 5.09h-.02ZM193.581 199.99c0-1.26 0-2.55-.07-3.81a.4.4 0 0 0-.8 0c-.07 1.43-.07 2.89-.07 4.32 0 .25.21.46.46.46 36.74-3.13 83.46-9.58 89.62-10.08.28.17.64.08.81-.2a.66.66 0 0 0 .09-.28c.04-4.84.14-5.66-.83-5.73-.12 0-79.25 9.26-89.4 10.27-.51.05-.51.84 0 .8 26.7-2.22 87.35-9.88 88.96-9.88 0 .6.1 1.77.1 1.97 0 .73-.02 1.46-.02 2.21-1.19.03-79.27 9.14-88.84 9.95h-.01ZM234.439 164.64c-.07-.12-21.49 1.16-30.2 1.16l-.12 5.24c8.16-.12 29.84-1.12 30.37-1.16 0-.95.02-5.12-.05-5.24Z"/><path fill="#fff" d="M272.86 142.3c-3.23-2.12-9.41-4.55-13.35-4.59-.2 0-.37.16-.37.37 0 .17.11.32.28.36 2.83.85 9.34 2.14 13.55 5.17 3.85 2.78 5.9 7.21 4.27 11.85-1.43 4.08-4.8 7.39-8.13 10-4.26 3.35-9.49 3.95-9.79 4.25-2.78.45-5.6.55-8.41.29-.51-.02-.51.75 0 .8 3.23.3 6.7.63 9.86-.41a24.15 24.15 0 0 0 7.5-2.99c10.47-6.86 15.22-18.13 4.59-25.11v.01Z"/><path fill="#fff" d="M261.539 166.02c.41-.36-.12-.96-.56-.73-4.17 2.25-6.94 2.37-11.22 2.11-.22 0-.39.18-.39.4 0 .18.12.33.29.38 3.54.88 9.3.12 11.87-2.16h.01ZM255.35 165.13a7.365 7.365 0 0 0 4.61-2.96c.27-.44-.38-.96-.73-.56-2.45 2.88-6.99 3.38-10.56 3.03-.49-.05-.53.67-.1.8 2.24.51 4.59.41 6.77-.32l.01.01ZM258.389 157.82c.06-.25-.1-.5-.35-.56a.44.44 0 0 0-.43.12 12.849 12.849 0 0 1-9.57 4.54.425.425 0 0 0 0 .85c2.27.06 4.52-.45 6.53-1.5 1.45-.74 3.22-1.84 3.81-3.45h.01ZM249.331 153.47c-.22.39.24.89.63.63a6.395 6.395 0 0 1 4.01-1.6c1.14.04 2.43 1.14 3.55.7a6.718 6.718 0 0 0 2.5-2.6 6.86 6.86 0 0 0 1.29-3.96.4.4 0 0 0-.8 0 7.622 7.622 0 0 1-2.06 4.3c-.26.32-.54.61-.85.87-.48.35-.66.24-1.12.15-.56-.12-1.04-.44-1.63-.53-1.87-.28-4.51.29-5.51 2.05l-.01-.01ZM253.77 146.53c.1.6 1.04.44 1.04-.15-.08-1.87-.06-3.74.05-5.61.28-1.96.67-3.89 1.17-5.8.04-.2-.07-.41-.27-.48a.435.435 0 0 0-.32-.22c-3.36-.76-6.78-1.25-10.22-1.48-6.05-.14-8.64 1.43-11.02 1.43.04-.16.09-.32.17-.46a.518.518 0 0 0-.44-.77c-2.69-.48-5.44-.5-8.13-.07a.566.566 0 0 0-.79.16v.01c-.48.74-1.01 1.46-1.58 2.14-.65-1.55-1.24-3.13-1.8-4.73 3.02-.5 6.18-2.28 6.75-5.34.74-4-.59-11.89-4.27-17.55a.465.465 0 0 0-.64-.13.46.46 0 0 0-.16.59c1.49 2.65 2.62 5.48 3.38 8.42.66 2.34.93 4.78.83 7.21-.27 2.96-2.6 4.74-5.29 5.54-3.05.81-6.26.74-9.28-.19a.366.366 0 0 0-.44.24c-.06.18.06.38.24.44 2.56 1 5.34 1.32 8.06.92.41 1.84.98 3.64 1.68 5.39.03.07.07.14.12.19-1.09 1.31-2.06 2.72-3.16 4.01-.31.37-.03.27-.41.19a6.06 6.06 0 0 1-1.5-.87c-.76-.46-2.5-1.14-2.84-1.97-3.05-7.29-3.42-10.5-5.15-12.92-.4-.55-1.46.25-2.43-.19-.68-.35-1.22-.94-1.5-1.65-.4-1.16 1.84-1.55 2.57-1.29.46.17.68-.51.32-.75a1.73 1.73 0 0 0-.85-.29c2.74-1.46.07-5.66-.05-6.75 3.98-1.33 7.78-3.17 11.29-5.46 3.43-2.33 6.24-4.95 5.78-9.4a6.952 6.952 0 0 0-5.08-6.27c-2.25-.69-4.65-.69-6.9 0-6.36 2.18-6.89 9.57-6.92 15.32-2.16-1.42-5.84 2-5.32 5.75a4.826 4.826 0 0 0 3.16 3.89 3.356 3.356 0 0 0-.68 4.42c.48.77 1.13 1.43 1.89 1.92.83 1.36 2.69 2.45 4.1 1.77.65 1.97 1.5 3.91 2.18 5.85.6 1.72 1.21 3.47 1.89 5.17-.34-.24-.68-.48-1-.75-.01 0-.02-.01-.02-.02a.425.425 0 0 0-.17-.1c-2.56-.6-5.23-.56-7.77.12-.34.11-.52.46-.41.8.01.04.03.08.05.12.24.47.52.92.85 1.34-6.37 2.3-8.15 2.63-16.17 8.67-.68.51-.31 1.08.39.63 3.26-2.26 6.69-4.26 10.26-5.98 2.18-.95 4.52-1.56 6.73-2.45.33-.1.52-.46.42-.79a.644.644 0 0 0-.15-.25c-.32-.31-.6-.65-.85-1.02 2.09-.27 4.25.07 6.31-.29.95.99 2.04 1.84 3.23 2.52 1.07.82 2.21 1.55 3.4 2.19-.58 2.26-1.04 4.54-1.65 6.8a45.355 45.355 0 0 1-7.19-7.07c-.3-.36-.92.12-.66.49 2.23 2.99 4.84 5.68 7.74 8.01a.61.61 0 0 0 1-.26c.54-2.55 1.24-5.07 1.68-7.65.3.02.59-.08.8-.29 3.04 2.86 4.12 5.7 6.63 6.85 1.6.73 1.79-1.07 2.14-2.23.85-2.38 1.56-4.82 2.11-7.28.08-.48-.61-.88-.85-.36-.35.75-3.03 8.72-2.96 8.77-.15-.07-.29-.17-.44-.24-.36-.18-.68-.43-.95-.73-1.82-1.65-2.96-4.18-5.12-5.49 2.18-3 3.82-4.6 5.34-6.92 2.4.19 4.83.02 7.24.19l-.44.87a.51.51 0 0 0 .2.7c.12.06.25.08.38.05 9.43-2.5 13.35-1.83 21.74-.32a23.25 23.25 0 0 0-1.07 11.22v-.03Zm-34.48-51.67c3.32 1.36 2.69 5.58 1.65 8.23-.17.44-.87.24-.7-.19.98-2.57 1.44-5.6-1.29-7.24-.41-.25-.12-.99.34-.8ZM219.51 153.01c1.25-.58 2.56-1.02 3.91-1.34.33 0 .67-.06.97-.19a.41.41 0 0 0 .14-.56.316.316 0 0 0-.14-.14c-.66-.38-1.91.21-2.55.44-.93.33-1.83.72-2.72 1.14-.46.22-.07.87.39.66v-.01Z"/><path fill="#00C26D" d="M251.59 156.51c-2.03-.04-4.05.03-6.07.22-2.4.11-15.52.66-19.7.83-.68-1.65-1.31-4.27-1.99-5.92-1.5.27-2.95.74-4.32 1.38a42.8 42.8 0 0 0-.19 4.8c-6.99.27-13.99.55-20.98.85-2.25-10.62-16.06-13.49-23.09-7.38-7.36 6.4-5.5 21.11 4.83 24.26 0 2.73.02 2.63.02 7.67 0 .22.18.4.4.4.22 0 .4-.18.4-.4.19-2.49.22-7.14.27-7.41 4.68.84 9.49-.46 13.12-3.54.21-.18.25-.5.07-.73a.521.521 0 0 0-.73-.07c-4.9 3.95-11.47 4.77-16.12 1.77-6.81-4.39-7.72-15.9-1.6-21.2 5.45-4.72 15.57-3.6 19.74 2.72 2.63 4.35 2.6 9.82-.1 14.13a.5.5 0 0 0 .38.75c.66.05 1.12-1.43 1.31-1.89a17.58 17.58 0 0 0 1.26-7.82c13.19-.57 50.98-1.84 53.22-2.19.75-.12.51-1.2-.15-1.24l.02.01Z"/><path fill="#fff" d="M190.07 109.66c1.49.59 2.94 1.28 4.33 2.08.2.1.38.19.55.26.02-.31.25-1.79.35-2.1.31-1.05.78-2.12 1.34-3.14 1.41-2.83 3.53-4.99 5.11-6.32-1.08-.74-3.51-2.3-3.76-2.58a.165.165 0 0 1-.05-.23c.05-.07.14-.09.21-.06.58.33 1.19.59 1.77.92.23-.3.33-.68.28-1.06-.07-.45-1.6-6.51-1.87-8.31-.07-.45-.57-.16-.73.04-1.18 1.43-9.5 13.22-10.67 15.03-.85 1.32-.56 2.62-.5 4.19.08 2.18.27 8.1.26 8.3 0 .32-.09.79.14 1.06.12.12.3.12.42 0 .01 0 .02-.02.03-.03 1.12-1.81 4.05-6.25 4.35-6.71-.58-.31-1.15-.66-1.69-1.04-.15-.11-.03-.35.12-.29l.01-.01Zm.59-4.52c1.2-3.42 4.51-6.63 4.64-5.54.04.3-.57.69-.74.86a12.41 12.41 0 0 0-3.4 5.23c-.19.64-.43 1.9-.68 1.88-.5-.03-.11-1.6.18-2.44v.01Z"/><path fill="#00C26D" d="M192.53 120.15c.15 0 2.49 3.4 3.05 4.03.06.06.15.06.21 0 .04-.04.05-.09.04-.14-.16-.63-1.51-3.05-1.87-3.25 1.05.48 3.87 1.93 4.23 2.02.44.12.78-.18.38-.53-.77-.68-3.77-1.87-4.23-2.12 1.04.11 5.19 1.03 5.36 1.01.13-.02.36-.18.09-.32-1.56-.54-3.15-.96-4.78-1.25 1.34-.29 2.67-.64 3.98-1.06.2-.09.15-.46-.08-.45-1.75.27-3.49.65-5.2 1.12.04-.04 2.8-1.97 3.2-2.4.06-.05.1-.14.08-.22-.04-.15-.27-.09-.37 0-.77.46-4.12 2.8-4.19 2.77-2.62-.02-4.32 2.26-6.68 3.06-3.06 1.04-4.83-1.75-3.86-4.82.47-1.3 1.08-2.55 1.82-3.72.65-1.12 1.54-2.21 1.64-3.56 0-.08-.06-.15-.14-.15-.05 0-.1.02-.13.06-1.97 3.94-4.64 6.49-4.19 9.74.22 1.56 1.23 3.13 2.84 3.42 3.53.64 5.46-3.2 8.79-3.25l.01.01Z"/><path fill="#fff" d="M116.411 127.21c-.18.44-.39.87-.62 1.29.36.16 3.87 1.72 5.26 2.38h.03c.12.02.23-.05.25-.17.04-.25-.2-.5-.32-.7-.08-.12-2.28-3.8-3.08-5.15-.58-.98-.9-1.88-1.94-2.35-1.42-.64-11.07-4.58-12.35-4.98-.17-.05-.59-.04-.46.26.54 1.21 1.97 5.48 2.1 5.79.12.25.33.44.59.53.22-.43.49-.82.72-1.25.03-.05.1-.07.15-.05.06.03.09.1.06.16-.04.26-.91 2.16-1.28 3.03 1.48.2 3.61.68 5.57 1.85.73.4 1.44.87 2.04 1.39.18.16.89.96 1.03 1.15.07-.11.15-.23.23-.37.53-1.03 1.14-2.02 1.82-2.95.07-.09.23.01.18.13l.02.01Zm-1.24-1.24c-.15.1-.78-.57-1.15-.88-1.19-.96-2.6-1.6-4.11-1.86-.17-.03-.69-.03-.79-.23-.34-.71 2.92-.05 4.98 1.56.5.39 1.35 1.2 1.06 1.41h.01Z"/><path fill="#00C26D" d="M125.441 132.96c.87-.8.87-2.15.39-3.19-.99-2.15-3.61-2.66-6.34-4.29a.118.118 0 0 0-.1.01c-.05.03-.06.1-.03.15.58.78 1.55 1.1 2.38 1.52.91.42 1.77.94 2.56 1.55 1.79 1.49 1.8 3.88-.47 4.44-1.75.43-3.67-.29-5.26.74-.03.05-2.98-.07-3.63-.05-.1-.02-.26.03-.23.14.03.05.08.09.14.1.41.1 2.84.21 2.88.21-1.23.38-2.43.83-3.6 1.35-.14.08-.03.33.13.3.96-.25 1.9-.56 2.83-.9-.87.81-1.68 1.69-2.41 2.62-.11.19.09.2.18.16.11-.06 2.28-2.23 2.87-2.71-.18.33-1.54 2.23-1.75 2.94-.11.37.21.42.44.17.19-.2 1.34-2.18 1.79-2.88-.15.26-.02 2.26.13 2.7.01.04.04.06.08.07.06.01.12-.03.13-.09.1-.6.2-3.58.28-3.64 2.05-1.27 4.71.31 6.61-1.45v.03Z"/><path fill="#fff" d="M191.999 168.09c-2.59-4.42-8.28-5.91-12.7-3.31-.52.31-1.01.66-1.47 1.07-.55.44-.96 1.02-1.19 1.69-.42 1.56 1.35 2.55 2.47 3.22 3.66 2.15 8.21 2.13 11.85-.07 1.46-.88 1.52-1.73 1.03-2.59l.01-.01ZM187.37 160.06c1.42-1.8 1.8-5.24-.7-6.27-2.74-1.13-6.01.52-5.96 3.69.06 3.46 4.39 5.47 6.66 2.59v-.01Z"/></svg>